<?xml version="1.0" standalone="no"?>
<!DOCTYPE svg PUBLIC "-//W3C//DTD SVG 20010904//EN"
 "http://www.w3.org/TR/2001/REC-SVG-20010904/DTD/svg10.dtd">
<svg version="1.0" xmlns="http://www.w3.org/2000/svg"
 width="1080.000000pt" height="1080.000000pt" viewBox="0 0 1080.000000 1080.000000"
 preserveAspectRatio="xMidYMid meet">
<metadata>
Created by potrace 1.14, written by Peter Selinger 2001-2017
</metadata>
<g transform="translate(0.000000,1080.000000) scale(0.100000,-0.100000)"
fill="#000000" stroke="none">
<path d="M0 5400 l0 -5400 1658 1 c1141 1 1646 4 1622 11 -19 6 -57 21 -85 33
-77 34 -209 85 -221 85 -7 0 -14 6 -17 13 -3 6 -22 21 -43 32 -22 11 -66 36
-100 56 -33 20 -69 39 -80 43 -11 3 -34 20 -53 36 -18 17 -36 29 -38 26 -3 -3
-25 9 -48 27 -24 18 -64 46 -91 62 -147 92 -158 100 -342 248 -106 85 -402
382 -402 402 0 8 -4 15 -8 17 -21 8 -252 329 -315 438 -76 131 -148 261 -199
360 -56 109 -178 374 -178 386 0 3 -8 24 -18 47 -47 107 -114 294 -136 377 -7
30 -18 66 -24 80 -19 50 -32 97 -32 118 0 12 -4 30 -10 40 -16 28 -77 324
-109 527 -26 165 -44 332 -55 495 -2 25 -9 122 -15 215 -20 292 -17 1290 4
1377 3 13 12 120 20 238 18 250 35 436 63 680 11 96 23 218 27 270 3 52 12
163 20 245 8 83 17 186 20 230 8 99 60 452 89 590 7 39 19 106 26 150 27 183
50 314 65 380 8 39 20 95 26 125 28 145 152 635 199 785 27 87 154 452 178
510 11 28 37 93 57 145 21 52 41 99 46 104 5 6 9 18 9 28 0 10 4 18 8 18 4 0
14 17 21 38 37 104 137 294 277 523 30 49 54 92 54 97 0 5 13 26 30 47 16 21
30 39 30 41 0 2 -434 4 -965 4 l-965 0 0 -5400z"/>
<path d="M8331 10783 c12 -20 133 -109 180 -133 19 -10 30 -25 33 -45 2 -16
16 -111 30 -210 25 -171 62 -364 84 -437 6 -18 17 -62 25 -98 8 -36 32 -128
52 -205 21 -77 43 -162 50 -190 6 -27 14 -57 17 -65 6 -15 14 -46 44 -165 8
-33 21 -83 29 -111 8 -28 15 -58 15 -68 0 -9 4 -24 9 -34 5 -9 15 -48 21 -87
7 -38 17 -78 21 -87 5 -9 16 -47 24 -85 8 -37 31 -133 50 -213 20 -80 42 -174
49 -210 67 -331 89 -441 121 -610 20 -107 43 -224 50 -260 21 -93 35 -193 30
-199 -3 -2 -5 3 -5 11 0 9 -7 19 -16 22 -13 5 -15 -3 -12 -49 2 -30 7 -55 11
-55 5 0 -1 -13 -13 -29 -11 -16 -16 -32 -11 -35 5 -3 11 -16 14 -28 2 -13 8
-31 12 -40 5 -13 3 -18 -9 -18 -12 0 -16 -9 -16 -34 0 -19 -5 -36 -10 -38 -7
-2 -7 -25 -1 -68 7 -51 5 -71 -6 -94 -8 -16 -13 -39 -10 -53 2 -13 0 -26 -4
-29 -12 -7 -11 -44 1 -44 6 0 10 -4 10 -10 0 -5 -6 -7 -14 -4 -9 3 -15 -4 -18
-20 -3 -14 -2 -26 3 -26 4 0 4 -14 -1 -32 -6 -20 -6 -36 0 -43 11 -13 3 -46
-14 -57 -7 -5 -5 -8 4 -8 12 0 12 -2 2 -9 -8 -5 -14 -26 -15 -47 0 -22 -5 -45
-10 -51 -6 -9 -6 -13 2 -13 6 0 11 -9 11 -20 0 -13 -5 -18 -15 -14 -9 4 -15 0
-15 -9 0 -9 8 -18 18 -20 16 -4 16 -5 0 -6 -21 -1 -24 -17 -5 -24 8 -4 8 -6 0
-6 -6 -1 -9 -10 -6 -21 3 -11 -1 -40 -10 -63 -8 -23 -18 -69 -22 -101 -4 -33
-14 -66 -22 -74 -9 -9 -13 -27 -11 -44 3 -15 0 -28 -5 -28 -5 0 -7 -7 -4 -15
4 -8 2 -17 -3 -20 -5 -3 -7 -12 -3 -20 3 -9 1 -21 -5 -28 -9 -11 -16 -47 -28
-141 -3 -21 -11 -48 -19 -60 -7 -11 -19 -48 -25 -81 -7 -33 -19 -72 -28 -87
-15 -25 -15 -29 4 -49 17 -20 17 -22 2 -16 -13 5 -18 1 -18 -12 0 -11 -5 -21
-10 -23 -6 -2 -13 -27 -17 -55 -3 -29 -10 -50 -14 -47 -5 3 -9 -6 -9 -20 0
-14 -4 -26 -9 -26 -12 0 -21 -39 -10 -46 15 -9 10 -27 -6 -20 -8 3 -15 1 -15
-4 0 -6 5 -10 11 -10 6 0 7 -5 2 -12 -4 -7 -8 -20 -10 -28 -1 -8 -6 -23 -11
-35 -24 -53 -32 -78 -32 -108 0 -18 -4 -37 -8 -42 -10 -12 -29 -77 -37 -126
-3 -21 -12 -42 -19 -48 -7 -6 -19 -32 -26 -56 -7 -25 -16 -45 -20 -45 -4 0 -7
-15 -8 -32 0 -18 -5 -34 -11 -36 -5 -2 -7 -10 -4 -19 3 -8 1 -18 -5 -22 -6 -3
-13 -18 -15 -31 -3 -14 -11 -38 -18 -55 -6 -16 -14 -39 -15 -50 -8 -44 -27
-106 -36 -111 -4 -3 -6 -10 -2 -15 3 -6 -4 -17 -15 -26 -17 -11 -19 -18 -11
-28 6 -7 7 -15 2 -17 -5 -1 -24 -50 -42 -108 -18 -58 -39 -118 -48 -135 -10
-20 -11 -30 -3 -33 17 -6 13 -26 -11 -52 -13 -14 -22 -28 -20 -32 1 -5 -4 -8
-11 -8 -8 0 -14 -6 -14 -12 -1 -21 -7 -43 -15 -48 -3 -3 -9 -19 -12 -35 -5
-24 -4 -26 3 -10 9 18 10 17 10 -8 1 -21 -5 -30 -25 -37 -23 -9 -25 -13 -18
-55 6 -42 5 -45 -16 -45 -15 0 -20 -5 -17 -14 3 -8 1 -16 -4 -18 -6 -2 -12
-16 -12 -31 -1 -15 -8 -27 -14 -27 -7 0 -13 -8 -13 -17 0 -16 2 -16 11 -3 8
11 9 9 4 -10 -4 -14 -11 -29 -16 -34 -5 -6 -9 -19 -10 -30 0 -21 0 -21 -9 -1
-7 18 -8 19 -15 3 -4 -10 -4 -25 -1 -33 3 -9 2 -23 -3 -33 -5 -9 -15 -32 -22
-50 -8 -21 -15 -29 -19 -21 -6 8 -12 5 -20 -11 -8 -15 -8 -20 -1 -16 6 4 11 0
11 -8 0 -9 -6 -15 -12 -14 -8 2 -12 -7 -11 -24 1 -18 -3 -28 -12 -28 -8 0 -17
-10 -19 -23 -13 -63 -19 -81 -23 -69 -9 23 -22 12 -21 -18 1 -18 -8 -40 -20
-53 -14 -14 -22 -37 -22 -58 -1 -32 -1 -33 -15 -15 -15 19 -15 19 -16 -5 -1
-13 0 -33 1 -43 1 -14 -3 -17 -15 -12 -14 5 -16 2 -11 -19 4 -14 3 -25 -2 -25
-11 0 -32 -45 -32 -70 0 -10 -5 -20 -10 -22 -6 -2 -17 -21 -25 -43 -12 -33
-14 -35 -15 -15 l-1 25 -14 -25 c-8 -14 -14 -38 -15 -53 0 -16 -4 -26 -10 -22
-5 3 -10 -3 -10 -14 0 -11 -7 -26 -15 -35 -8 -8 -15 -23 -15 -33 0 -11 -7 -28
-15 -39 -14 -19 -14 -19 -15 1 0 16 -2 17 -10 5 -6 -9 -5 -17 1 -21 11 -7 -19
-79 -33 -79 -4 0 -8 -7 -8 -15 0 -9 -6 -18 -14 -21 -8 -3 -13 -11 -10 -18 3
-7 -4 -23 -16 -36 -11 -13 -20 -26 -20 -30 0 -4 -10 -10 -21 -13 -14 -4 -20
-11 -16 -20 3 -8 -3 -24 -13 -34 -10 -11 -20 -29 -22 -39 -2 -10 -13 -23 -26
-29 -16 -7 -22 -18 -22 -41 0 -18 -6 -34 -13 -37 -8 -3 -21 -20 -30 -39 -11
-21 -17 -26 -17 -15 0 10 -5 15 -11 12 -6 -4 -8 -14 -5 -22 6 -15 -76 -140
-127 -195 -14 -15 -23 -29 -20 -32 3 -2 -8 -18 -23 -34 -40 -42 -94 -108 -135
-166 -18 -28 -41 -57 -49 -66 -19 -21 -95 -106 -140 -159 -19 -22 -41 -41 -47
-41 -7 0 -13 -6 -13 -14 0 -17 -393 -396 -411 -396 -8 0 -49 -33 -83 -66 -11
-11 -48 -39 -81 -61 -33 -22 -72 -52 -86 -65 -14 -13 -56 -46 -92 -73 -37 -27
-67 -52 -67 -56 0 -4 -11 -10 -25 -13 -14 -4 -25 -11 -25 -16 0 -6 -5 -10 -10
-10 -6 0 -32 -15 -58 -33 -26 -18 -66 -41 -89 -52 -24 -11 -43 -23 -43 -27 0
-5 -9 -8 -20 -8 -11 0 -20 -4 -20 -9 0 -5 -20 -19 -45 -31 -25 -12 -45 -26
-45 -31 0 -5 -7 -9 -15 -9 -17 0 -93 -38 -101 -51 -3 -5 -14 -9 -25 -9 -10 0
-19 -4 -19 -9 0 -5 -16 -12 -36 -15 -19 -4 -38 -14 -41 -22 -3 -7 -11 -14 -19
-14 -7 0 -33 -11 -58 -24 -25 -14 -61 -28 -78 -31 -18 -4 -50 -16 -70 -26 -21
-11 -49 -19 -63 -19 -14 0 -25 -6 -25 -14 0 -8 -16 -16 -42 -20 -23 -4 -76
-18 -117 -31 -42 -14 -87 -25 -101 -25 -14 0 -30 -4 -35 -9 -6 -5 -23 -11 -40
-14 -16 -2 1317 -5 2963 -6 l2992 -1 0 5400 0 5400 -1240 0 c-1179 0 -1240 -1
-1229 -17z m946 -3570 c-3 -10 -5 -4 -5 12 0 17 2 24 5 18 2 -7 2 -21 0 -30z
m-727 -3082 c0 -6 -4 -13 -10 -16 -5 -3 -10 1 -10 9 0 9 5 16 10 16 6 0 10 -4
10 -9z m-44 -112 c-9 -19 -15 -29 -16 -22 0 18 20 66 25 61 3 -3 -1 -20 -9
-39z m-85 -226 c-10 -17 -10 -16 -11 3 0 23 13 41 18 25 2 -6 -1 -18 -7 -28z"/>
<path d="M7981 10693 c-19 -8 -91 -81 -91 -93 0 -5 -6 -13 -13 -17 -15 -10
-98 -180 -132 -273 -8 -19 -24 -57 -38 -85 -42 -86 -67 -143 -67 -155 0 -6
-13 -36 -29 -68 -16 -31 -40 -86 -53 -122 -43 -113 -86 -222 -117 -300 -42
-107 -129 -380 -121 -385 3 -2 32 76 65 173 32 97 68 200 80 227 12 28 32 79
45 115 25 71 42 112 101 235 20 44 42 99 48 122 6 22 34 85 61 140 27 54 50
103 50 110 0 6 17 42 38 80 22 37 45 83 53 101 8 17 20 32 27 32 7 0 11 4 8 8
-7 12 31 52 50 52 8 0 13 4 10 8 -9 15 42 52 61 46 17 -5 17 -5 1 9 -23 18
-23 28 -2 20 12 -4 15 -2 12 8 -5 15 -25 21 -47 12z"/>
<path d="M7292 9105 c0 -16 2 -22 5 -12 2 9 2 23 0 30 -3 6 -5 -1 -5 -18z"/>
<path d="M2366 9065 c-16 -9 -36 -13 -43 -11 -7 3 -26 1 -41 -5 -15 -6 -55
-10 -90 -10 -39 0 -61 -3 -57 -9 6 -10 -6 -11 -77 -10 -21 0 -38 -5 -38 -10 0
-6 -7 -10 -15 -10 -8 0 -15 5 -15 10 0 6 -5 10 -10 10 -6 0 -9 -5 -8 -11 4
-14 -17 -19 -102 -26 -51 -5 -60 -7 -42 -14 32 -12 20 -27 -18 -21 -18 3 -30
0 -30 -7 0 -15 -7 -23 -128 -147 -124 -126 -157 -189 -175 -327 -11 -88 -11
-89 18 -140 41 -74 157 -181 243 -224 84 -43 238 -89 382 -114 163 -29 212
-33 395 -34 179 0 209 2 290 24 97 25 186 67 250 115 67 52 160 149 175 184 8
17 18 32 22 32 14 0 66 124 79 188 19 94 3 164 -69 287 -33 57 -47 72 -117
121 -110 78 -164 105 -214 106 -24 0 -58 9 -75 19 -40 23 -83 30 -198 34 -51
1 -131 6 -178 9 -69 6 -91 4 -114 -9z m132 -15 c-10 -6 -31 -7 -55 -1 -38 9
-38 9 17 10 40 0 50 -2 38 -9z"/>
<path d="M7277 9023 c-3 -27 -2 -70 3 -98 6 -44 7 -38 9 48 0 53 -1 97 -3 97
-2 0 -6 -21 -9 -47z"/>
<path d="M7290 8837 c0 -20 4 -38 9 -42 6 -3 7 10 4 32 -8 50 -13 55 -13 10z"/>
<path d="M7310 8769 c0 -8 7 -24 15 -35 18 -24 19 -7 0 26 -9 16 -14 19 -15 9z"/>
<path d="M7156 7973 c-2 -2 -41 -8 -86 -13 -75 -9 -150 -36 -194 -70 -56 -44
-86 -74 -86 -84 0 -7 -17 -28 -39 -49 -93 -88 -81 -297 31 -526 42 -85 64
-117 127 -180 72 -72 209 -165 301 -204 19 -8 49 -20 65 -27 117 -49 202 -81
275 -104 47 -15 99 -33 116 -41 17 -8 63 -21 100 -29 38 -8 82 -19 96 -25 15
-6 91 -17 168 -26 241 -28 421 -1 543 82 20 14 37 32 37 39 0 8 4 14 9 14 5 0
12 14 16 31 4 17 15 39 25 49 22 22 43 144 34 203 -19 127 -81 229 -222 361
-88 84 -200 176 -212 176 -4 0 -17 9 -30 20 -13 11 -28 20 -35 20 -7 0 -20 9
-29 19 -10 11 -32 27 -49 36 -18 9 -45 25 -62 35 -29 19 -105 59 -269 141 -50
25 -76 44 -73 52 3 9 -3 12 -23 9 -15 -2 -56 7 -91 21 -35 14 -88 27 -117 30
-29 2 -59 10 -65 16 -9 10 -3 11 28 7 37 -5 38 -5 10 4 -27 9 -292 20 -299 13z"/>
<path d="M7318 6533 c7 -3 16 -2 19 1 4 3 -2 6 -13 5 -11 0 -14 -3 -6 -6z"/>
<path d="M8101 6114 c0 -11 3 -14 6 -6 3 7 2 16 -1 19 -3 4 -6 -2 -5 -13z"/>
<path d="M6975 5730 c-7 -12 24 -12 80 -1 40 9 40 9 -17 10 -31 0 -60 -3 -63
-9z"/>
<path d="M6928 5723 c6 -2 18 -2 25 0 6 3 1 5 -13 5 -14 0 -19 -2 -12 -5z"/>
<path d="M7128 5723 c12 -2 30 -2 40 0 9 3 -1 5 -23 4 -22 0 -30 -2 -17 -4z"/>
<path d="M6840 5710 c-8 -5 -10 -10 -5 -10 6 0 17 5 25 10 8 5 11 10 5 10 -5
0 -17 -5 -25 -10z"/>
<path d="M6721 5669 c-13 -5 -21 -12 -17 -16 3 -3 16 -1 29 5 12 6 29 13 37
15 10 4 8 5 -5 6 -11 0 -31 -5 -44 -10z"/>
<path d="M6638 5615 c-48 -32 -160 -171 -191 -238 -14 -28 -38 -92 -55 -142
-29 -89 -44 -148 -102 -400 -17 -71 -35 -139 -40 -150 -11 -25 -35 -167 -66
-395 -13 -96 -30 -209 -38 -250 -8 -41 -22 -113 -31 -160 -8 -47 -18 -92 -21
-100 -3 -8 -19 -78 -35 -155 -17 -77 -37 -169 -45 -205 -8 -36 -23 -117 -34
-180 -11 -63 -25 -135 -31 -160 -46 -188 -66 -320 -55 -365 12 -46 21 -26 22
48 1 76 26 225 50 292 7 22 22 99 33 170 11 72 29 168 41 215 11 47 32 141 46
210 14 69 34 168 45 220 35 166 77 402 84 475 9 94 40 255 76 395 16 63 45
185 64 270 58 255 95 351 182 467 57 76 94 117 133 146 36 26 11 19 -32 -8z"/>
<path d="M1553 5370 c0 -25 2 -35 4 -22 2 12 2 32 0 45 -2 12 -4 2 -4 -23z"/>
<path d="M1652 4630 c0 -19 2 -27 5 -17 2 9 2 25 0 35 -3 9 -5 1 -5 -18z"/>
<path d="M1710 4284 c0 -10 5 -26 10 -34 8 -11 9 -7 4 15 -8 37 -14 45 -14 19z"/>
<path d="M1732 4175 c0 -16 2 -22 5 -12 2 9 2 23 0 30 -3 6 -5 -1 -5 -18z"/>
<path d="M8435 3919 c-4 -6 -5 -13 -2 -16 7 -7 27 6 27 18 0 12 -17 12 -25 -2z"/>
<path d="M8245 3460 c-3 -5 -1 -10 4 -10 6 0 11 5 11 10 0 6 -2 10 -4 10 -3 0
-8 -4 -11 -10z"/>
<path d="M2595 2590 c-144 -13 -234 -64 -288 -161 -46 -84 -53 -164 -21 -236
8 -17 14 -36 14 -42 0 -25 41 -88 82 -127 52 -49 119 -95 129 -89 4 3 9 -2 13
-10 3 -8 15 -15 26 -15 11 0 20 -4 20 -10 0 -5 9 -10 19 -10 11 0 23 -4 26
-10 11 -19 100 -52 135 -51 40 1 112 -21 110 -35 0 -5 10 -10 22 -12 18 -2 20
-1 8 7 -12 9 -11 11 7 11 23 0 43 -20 21 -21 -10 0 118 -49 130 -49 2 0 0 5
-3 10 -4 7 8 8 37 4 48 -8 62 -14 30 -14 -11 0 -24 -5 -27 -10 -4 -7 8 -8 35
-4 45 7 203 -29 231 -53 8 -7 20 -13 25 -13 5 0 14 -9 21 -19 10 -16 21 -18
77 -14 55 5 66 3 66 -10 0 -9 18 -21 47 -31 55 -19 87 -21 77 -5 -5 9 2 10 22
5 16 -3 40 -9 54 -11 45 -10 60 -16 60 -26 0 -5 9 -9 19 -9 11 0 23 -4 26 -10
3 -5 24 -10 45 -10 21 0 41 -4 44 -9 4 -5 30 -9 59 -9 67 1 119 -11 111 -24
-4 -6 11 -9 44 -7 30 3 50 0 49 -6 -1 -6 25 -11 59 -11 75 -2 131 -11 136 -24
2 -5 23 -11 48 -14 38 -5 41 -4 15 4 -23 7 -16 8 30 4 33 -3 95 -9 138 -12 42
-4 77 -5 77 -1 0 3 46 11 103 17 115 14 180 40 246 100 58 52 104 187 71 207
-5 3 -10 24 -10 46 0 22 -9 58 -21 80 -25 50 -117 139 -173 168 -22 12 -48 26
-56 31 -37 23 -230 110 -243 110 -8 0 -28 7 -43 15 -16 8 -39 15 -51 15 -12 0
-24 4 -27 9 -3 4 -26 11 -52 15 -26 3 -52 10 -58 15 -6 5 -27 11 -46 14 -75
12 -146 29 -170 42 -14 7 -54 18 -90 24 -72 12 -109 20 -225 50 -44 11 -92 21
-108 21 -15 0 -35 5 -45 10 -27 16 -277 80 -311 80 -17 0 -31 5 -31 10 0 6 -9
10 -20 10 -12 0 -67 12 -123 26 -56 15 -112 26 -124 25 -12 0 -36 6 -55 13
-60 25 -328 47 -443 36z m-225 -516 c0 -8 -5 -12 -10 -9 -6 4 -8 11 -5 16 9
14 15 11 15 -7z m1507 -540 c-3 -3 -12 -4 -19 -1 -8 3 -5 6 6 6 11 1 17 -2 13
-5z"/>
<path d="M3195 1690 c3 -5 13 -10 21 -10 8 0 12 5 9 10 -3 6 -13 10 -21 10 -8
0 -12 -4 -9 -10z"/>
<path d="M3463 1603 c9 -2 25 -2 35 0 9 3 1 5 -18 5 -19 0 -27 -2 -17 -5z"/>
<path d="M2772 1315 c0 -16 2 -22 5 -12 2 9 2 23 0 30 -3 6 -5 -1 -5 -18z"/>
<path d="M2767 1273 c-11 -11 -7 -47 7 -66 13 -16 14 -14 9 25 -6 49 -7 51
-16 41z"/>
</g>
</svg>
